<svg id="Layer_1" data-name="Layer 1" xmlns="http://www.w3.org/2000/svg" viewBox="0 0 503.67 508.1"><defs><style>.cls-1{fill:#fff;}</style></defs><g id="Regular-S"><path class="cls-1" d="M211.5,416.61a205.71,205.71,0,0,0,118.33-37.17L450.89,500.5a33.19,33.19,0,0,0,23.87,9.55c19.09,0,33.07-14.66,33.07-33.42a33.25,33.25,0,0,0-9.54-23.87l-120-120.37a205.77,205.77,0,0,0,40.58-123.11C418.83,95,325.74,2,211.5,2,97.6,2,4.17,94.7,4.17,209.28,4.17,323.52,97.26,416.61,211.5,416.61Zm0-50.81C125.91,365.8,55,294.87,55,209.28,55,123.35,125.91,52.76,211.5,52.76,297.43,52.76,368,123.35,368,209.28,368,294.87,297.43,365.8,211.5,365.8Z" transform="translate(-4.17 -1.95)"/></g></svg>