<svg id="Layer_1" data-name="Layer 1" xmlns="http://www.w3.org/2000/svg" viewBox="0 0 29.9 15.44"><defs><style>.cls-1{fill:#2e2e2e;}</style></defs><g id="Thin-S"><path class="cls-1" d="M1.69,9.53H30.31A.63.63,0,0,0,31,8.92a.64.64,0,0,0-.64-.64H1.69a.64.64,0,0,0-.64.64A.63.63,0,0,0,1.69,9.53Zm0,7.11H30.31a.64.64,0,1,0,0-1.28H1.69a.64.64,0,0,0,0,1.28Zm0,7.08H30.31A.63.63,0,0,0,31,23.1a.64.64,0,0,0-.64-.63H1.69a.64.64,0,0,0-.64.63A.63.63,0,0,0,1.69,23.72Z" transform="translate(-1.05 -8.28)"/></g></svg>